<?xml version="1.0" standalone="no"?>
<!DOCTYPE svg PUBLIC "-//W3C//DTD SVG 20010904//EN"
 "http://www.w3.org/TR/2001/REC-SVG-20010904/DTD/svg10.dtd">
<svg version="1.0" xmlns="http://www.w3.org/2000/svg"
 width="63.000000pt" height="64.000000pt" viewBox="0 0 63.000000 64.000000"
 preserveAspectRatio="xMidYMid meet">

<g transform="translate(0.000000,64.000000) scale(0.100000,-0.100000)"
fill="#000000" stroke="none">
<path d="M255 570 c-3 -6 1 -7 9 -4 18 7 21 14 7 14 -6 0 -13 -4 -16 -10z"/>
<path d="M366 565 c60 -19 96 -40 133 -77 24 -23 30 -27 22 -11 -23 44 -130
105 -180 102 -9 -1 2 -7 25 -14z"/>
<path d="M182 543 c-38 -27 -102 -97 -102 -114 0 -4 -3 -16 -6 -26 -3 -10 5 0
17 22 29 54 55 82 109 116 25 16 40 29 34 29 -6 0 -29 -12 -52 -27z"/>
<path d="M208 423 c-27 -33 -32 -48 -6 -25 13 12 30 22 37 22 7 0 9 5 6 10 -9
15 -20 12 -37 -7z"/>
<path d="M353 408 c-11 -13 -44 -59 -73 -103 -30 -44 -58 -84 -64 -88 -6 -4
-26 -6 -45 -4 -29 3 -31 2 -15 -10 39 -28 55 -15 141 112 73 107 96 122 136
88 l22 -18 -19 23 c-11 12 -29 22 -41 22 -12 0 -31 -10 -42 -22z"/>
<path d="M354 304 c-17 -14 -17 -15 -1 -10 10 3 23 6 28 6 5 0 9 5 9 10 0 14
-13 12 -36 -6z"/>
<path d="M570 270 c0 -5 7 -10 15 -10 8 0 15 5 15 10 0 6 -7 10 -15 10 -8 0
-15 -4 -15 -10z"/>
<path d="M404 222 c34 -36 56 -40 79 -14 24 26 21 36 -3 12 -26 -26 -32 -25
-72 7 l-33 27 29 -32z"/>
<path d="M64 181 c27 -51 66 -90 83 -84 10 4 14 2 9 -5 -3 -6 4 -18 16 -26 28
-20 49 -21 22 -1 -11 9 -14 14 -6 15 7 0 -12 24 -43 54 -30 30 -55 59 -55 65
0 6 -9 11 -20 11 -19 0 -20 -2 -6 -29z"/>
<path d="M505 118 c-33 -34 -51 -56 -39 -50 29 15 121 117 102 111 -2 0 -30
-28 -63 -61z"/>
<path d="M405 50 c-13 -6 -15 -9 -5 -9 8 0 22 4 30 9 18 12 2 12 -25 0z"/>
<path d="M235 39 c11 -4 49 -8 85 -8 82 1 68 6 -30 12 -43 2 -66 1 -55 -4z"/>
</g>
</svg>
